<svg id="visual" viewBox="0 0 900 300" width="900" height="300" xmlns="http://www.w3.org/2000/svg" xmlns:xlink="http://www.w3.org/1999/xlink" version="1.1"><path d="M0 179L21.5 185.8C43 192.7 86 206.3 128.8 211.8C171.7 217.3 214.3 214.7 257.2 212.3C300 210 343 208 385.8 207.2C428.7 206.3 471.3 206.7 514.2 205.8C557 205 600 203 642.8 199.3C685.7 195.7 728.3 190.3 771.2 188.8C814 187.3 857 189.7 878.5 190.8L900 192L900 301L878.5 301C857 301 814 301 771.2 301C728.3 301 685.7 301 642.8 301C600 301 557 301 514.2 301C471.3 301 428.7 301 385.8 301C343 301 300 301 257.2 301C214.3 301 171.7 301 128.8 301C86 301 43 301 21.5 301L0 301Z" fill="#25aeba"></path><path d="M0 204L21.5 203.8C43 203.7 86 203.3 128.8 202.7C171.7 202 214.3 201 257.2 205.8C300 210.7 343 221.3 385.8 225.3C428.7 229.3 471.3 226.7 514.2 223.5C557 220.3 600 216.7 642.8 213.3C685.7 210 728.3 207 771.2 208.8C814 210.7 857 217.3 878.5 220.7L900 224L900 301L878.5 301C857 301 814 301 771.2 301C728.3 301 685.7 301 642.8 301C600 301 557 301 514.2 301C471.3 301 428.7 301 385.8 301C343 301 300 301 257.2 301C214.3 301 171.7 301 128.8 301C86 301 43 301 21.5 301L0 301Z" fill="#02809a"></path><path d="M0 239L21.5 235.7C43 232.3 86 225.7 128.8 225.3C171.7 225 214.3 231 257.2 234.7C300 238.3 343 239.7 385.8 238.5C428.7 237.3 471.3 233.7 514.2 231.3C557 229 600 228 642.8 230.8C685.7 233.7 728.3 240.3 771.2 244.8C814 249.3 857 251.7 878.5 252.8L900 254L900 301L878.5 301C857 301 814 301 771.2 301C728.3 301 685.7 301 642.8 301C600 301 557 301 514.2 301C471.3 301 428.7 301 385.8 301C343 301 300 301 257.2 301C214.3 301 171.7 301 128.8 301C86 301 43 301 21.5 301L0 301Z" fill="#095473"></path><path d="M0 265L21.5 264.7C43 264.3 86 263.7 128.8 259.8C171.7 256 214.3 249 257.2 250C300 251 343 260 385.8 261C428.7 262 471.3 255 514.2 252.3C557 249.7 600 251.3 642.8 252.7C685.7 254 728.3 255 771.2 257.7C814 260.3 857 264.7 878.5 266.8L900 269L900 301L878.5 301C857 301 814 301 771.2 301C728.3 301 685.7 301 642.8 301C600 301 557 301 514.2 301C471.3 301 428.7 301 385.8 301C343 301 300 301 257.2 301C214.3 301 171.7 301 128.8 301C86 301 43 301 21.5 301L0 301Z" fill="#0d2c48"></path><path d="M0 269L21.5 269.7C43 270.3 86 271.7 128.8 273.7C171.7 275.7 214.3 278.3 257.2 278.3C300 278.3 343 275.7 385.8 273.7C428.7 271.7 471.3 270.3 514.2 271.5C557 272.7 600 276.3 642.8 276.3C685.7 276.3 728.3 272.7 771.2 270.2C814 267.7 857 266.3 878.5 265.7L900 265L900 301L878.5 301C857 301 814 301 771.2 301C728.3 301 685.7 301 642.8 301C600 301 557 301 514.2 301C471.3 301 428.7 301 385.8 301C343 301 300 301 257.2 301C214.3 301 171.7 301 128.8 301C86 301 43 301 21.5 301L0 301Z" fill="#02021e"></path></svg>