<svg id="visual" viewBox="0 0 900 150" width="900" height="150" xmlns="http://www.w3.org/2000/svg" xmlns:xlink="http://www.w3.org/1999/xlink" version="1.1"><path d="M0 87L21.5 87.8C43 88.7 86 90.3 128.8 89.2C171.7 88 214.3 84 257.2 81.5C300 79 343 78 385.8 80.2C428.7 82.3 471.3 87.7 514.2 90.7C557 93.7 600 94.3 642.8 91.8C685.7 89.3 728.3 83.7 771.2 84.5C814 85.3 857 92.7 878.5 96.3L900 100L900 151L878.5 151C857 151 814 151 771.2 151C728.3 151 685.7 151 642.8 151C600 151 557 151 514.2 151C471.3 151 428.7 151 385.8 151C343 151 300 151 257.2 151C214.3 151 171.7 151 128.8 151C86 151 43 151 21.5 151L0 151Z" fill="#25aeba"></path><path d="M0 107L21.5 105C43 103 86 99 128.8 96C171.7 93 214.3 91 257.2 90.3C300 89.7 343 90.3 385.8 93.8C428.7 97.3 471.3 103.7 514.2 107.3C557 111 600 112 642.8 109.8C685.7 107.7 728.3 102.3 771.2 100.8C814 99.3 857 101.7 878.5 102.8L900 104L900 151L878.5 151C857 151 814 151 771.2 151C728.3 151 685.7 151 642.8 151C600 151 557 151 514.2 151C471.3 151 428.7 151 385.8 151C343 151 300 151 257.2 151C214.3 151 171.7 151 128.8 151C86 151 43 151 21.5 151L0 151Z" fill="#02809a"></path><path d="M0 104L21.5 106C43 108 86 112 128.8 112C171.7 112 214.3 108 257.2 109C300 110 343 116 385.8 115.5C428.7 115 471.3 108 514.2 107.7C557 107.3 600 113.7 642.8 115C685.7 116.3 728.3 112.7 771.2 111.2C814 109.7 857 110.3 878.5 110.7L900 111L900 151L878.5 151C857 151 814 151 771.2 151C728.3 151 685.7 151 642.8 151C600 151 557 151 514.2 151C471.3 151 428.7 151 385.8 151C343 151 300 151 257.2 151C214.3 151 171.7 151 128.8 151C86 151 43 151 21.5 151L0 151Z" fill="#095473"></path><path d="M0 119L21.5 120.2C43 121.3 86 123.7 128.8 125C171.7 126.3 214.3 126.7 257.2 125.3C300 124 343 121 385.8 120.8C428.7 120.7 471.3 123.3 514.2 123.3C557 123.3 600 120.7 642.8 118.7C685.7 116.7 728.3 115.3 771.2 116C814 116.7 857 119.3 878.5 120.7L900 122L900 151L878.5 151C857 151 814 151 771.2 151C728.3 151 685.7 151 642.8 151C600 151 557 151 514.2 151C471.3 151 428.7 151 385.8 151C343 151 300 151 257.2 151C214.3 151 171.7 151 128.8 151C86 151 43 151 21.5 151L0 151Z" fill="#0d2c48"></path><path d="M0 130L21.5 129.5C43 129 86 128 128.8 129.8C171.7 131.7 214.3 136.3 257.2 138.3C300 140.3 343 139.7 385.8 138.2C428.7 136.7 471.3 134.3 514.2 133.5C557 132.7 600 133.3 642.8 133.8C685.7 134.3 728.3 134.7 771.2 133.5C814 132.3 857 129.7 878.5 128.3L900 127L900 151L878.5 151C857 151 814 151 771.2 151C728.3 151 685.7 151 642.8 151C600 151 557 151 514.2 151C471.3 151 428.7 151 385.8 151C343 151 300 151 257.2 151C214.3 151 171.7 151 128.8 151C86 151 43 151 21.5 151L0 151Z" fill="#02021e"></path></svg>