<svg id="visual" viewBox="0 0 900 500" width="900" height="500" xmlns="http://www.w3.org/2000/svg" xmlns:xlink="http://www.w3.org/1999/xlink" version="1.1"><path d="M0 117L21.5 125.2C43 133.3 86 149.7 128.8 155.3C171.7 161 214.3 156 257.2 149.3C300 142.7 343 134.3 385.8 130.8C428.7 127.3 471.3 128.7 514.2 137.8C557 147 600 164 642.8 171.3C685.7 178.7 728.3 176.3 771.2 171.3C814 166.3 857 158.7 878.5 154.8L900 151L900 501L878.5 501C857 501 814 501 771.2 501C728.3 501 685.7 501 642.8 501C600 501 557 501 514.2 501C471.3 501 428.7 501 385.8 501C343 501 300 501 257.2 501C214.3 501 171.7 501 128.8 501C86 501 43 501 21.5 501L0 501Z" fill="#25aeba"></path><path d="M0 212L21.5 201C43 190 86 168 128.8 166.3C171.7 164.7 214.3 183.3 257.2 183.7C300 184 343 166 385.8 158.3C428.7 150.7 471.3 153.3 514.2 160.2C557 167 600 178 642.8 178.8C685.7 179.7 728.3 170.3 771.2 170C814 169.7 857 178.3 878.5 182.7L900 187L900 501L878.5 501C857 501 814 501 771.2 501C728.3 501 685.7 501 642.8 501C600 501 557 501 514.2 501C471.3 501 428.7 501 385.8 501C343 501 300 501 257.2 501C214.3 501 171.7 501 128.8 501C86 501 43 501 21.5 501L0 501Z" fill="#1199ad"></path><path d="M0 242L21.5 239.2C43 236.3 86 230.7 128.8 226.3C171.7 222 214.3 219 257.2 212.8C300 206.7 343 197.3 385.8 197C428.7 196.7 471.3 205.3 514.2 214.3C557 223.3 600 232.7 642.8 229.8C685.7 227 728.3 212 771.2 211C814 210 857 223 878.5 229.5L900 236L900 501L878.5 501C857 501 814 501 771.2 501C728.3 501 685.7 501 642.8 501C600 501 557 501 514.2 501C471.3 501 428.7 501 385.8 501C343 501 300 501 257.2 501C214.3 501 171.7 501 128.8 501C86 501 43 501 21.5 501L0 501Z" fill="#03859e"></path><path d="M0 239L21.5 243C43 247 86 255 128.8 252.3C171.7 249.7 214.3 236.3 257.2 239.7C300 243 343 263 385.8 265.5C428.7 268 471.3 253 514.2 246.3C557 239.7 600 241.3 642.8 238.3C685.7 235.3 728.3 227.7 771.2 233.2C814 238.7 857 257.3 878.5 266.7L900 276L900 501L878.5 501C857 501 814 501 771.2 501C728.3 501 685.7 501 642.8 501C600 501 557 501 514.2 501C471.3 501 428.7 501 385.8 501C343 501 300 501 257.2 501C214.3 501 171.7 501 128.8 501C86 501 43 501 21.5 501L0 501Z" fill="#02718e"></path><path d="M0 301L21.5 298.7C43 296.3 86 291.7 128.8 283.8C171.7 276 214.3 265 257.2 260.2C300 255.3 343 256.7 385.8 261C428.7 265.3 471.3 272.7 514.2 273.2C557 273.7 600 267.3 642.8 266.2C685.7 265 728.3 269 771.2 276.3C814 283.7 857 294.3 878.5 299.7L900 305L900 501L878.5 501C857 501 814 501 771.2 501C728.3 501 685.7 501 642.8 501C600 501 557 501 514.2 501C471.3 501 428.7 501 385.8 501C343 501 300 501 257.2 501C214.3 501 171.7 501 128.8 501C86 501 43 501 21.5 501L0 501Z" fill="#065d7c"></path><path d="M0 310L21.5 315C43 320 86 330 128.8 327.8C171.7 325.7 214.3 311.3 257.2 303.7C300 296 343 295 385.8 297.8C428.7 300.7 471.3 307.3 514.2 313.8C557 320.3 600 326.7 642.8 329.2C685.7 331.7 728.3 330.3 771.2 326.7C814 323 857 317 878.5 314L900 311L900 501L878.5 501C857 501 814 501 771.2 501C728.3 501 685.7 501 642.8 501C600 501 557 501 514.2 501C471.3 501 428.7 501 385.8 501C343 501 300 501 257.2 501C214.3 501 171.7 501 128.8 501C86 501 43 501 21.5 501L0 501Z" fill="#0b4b6a"></path><path d="M0 329L21.5 333.7C43 338.3 86 347.7 128.8 349.8C171.7 352 214.3 347 257.2 345.5C300 344 343 346 385.8 346.8C428.7 347.7 471.3 347.3 514.2 351.5C557 355.7 600 364.3 642.8 361.3C685.7 358.3 728.3 343.7 771.2 339.5C814 335.3 857 341.7 878.5 344.8L900 348L900 501L878.5 501C857 501 814 501 771.2 501C728.3 501 685.7 501 642.8 501C600 501 557 501 514.2 501C471.3 501 428.7 501 385.8 501C343 501 300 501 257.2 501C214.3 501 171.7 501 128.8 501C86 501 43 501 21.5 501L0 501Z" fill="#0e3957"></path><path d="M0 394L21.5 394.3C43 394.7 86 395.3 128.8 392.2C171.7 389 214.3 382 257.2 379.2C300 376.3 343 377.7 385.8 381C428.7 384.3 471.3 389.7 514.2 389.3C557 389 600 383 642.8 383.7C685.7 384.3 728.3 391.7 771.2 391.7C814 391.7 857 384.3 878.5 380.7L900 377L900 501L878.5 501C857 501 814 501 771.2 501C728.3 501 685.7 501 642.8 501C600 501 557 501 514.2 501C471.3 501 428.7 501 385.8 501C343 501 300 501 257.2 501C214.3 501 171.7 501 128.8 501C86 501 43 501 21.5 501L0 501Z" fill="#0d2843"></path><path d="M0 407L21.5 410C43 413 86 419 128.8 419.3C171.7 419.7 214.3 414.3 257.2 412.8C300 411.3 343 413.7 385.8 417.8C428.7 422 471.3 428 514.2 429.7C557 431.3 600 428.7 642.8 428.3C685.7 428 728.3 430 771.2 426.2C814 422.3 857 412.7 878.5 407.8L900 403L900 501L878.5 501C857 501 814 501 771.2 501C728.3 501 685.7 501 642.8 501C600 501 557 501 514.2 501C471.3 501 428.7 501 385.8 501C343 501 300 501 257.2 501C214.3 501 171.7 501 128.8 501C86 501 43 501 21.5 501L0 501Z" fill="#091830"></path><path d="M0 456L21.5 455.5C43 455 86 454 128.8 454.2C171.7 454.3 214.3 455.7 257.2 455.2C300 454.7 343 452.3 385.8 454C428.7 455.7 471.3 461.3 514.2 461.2C557 461 600 455 642.8 451.7C685.7 448.3 728.3 447.7 771.2 450.2C814 452.7 857 458.3 878.5 461.2L900 464L900 501L878.5 501C857 501 814 501 771.2 501C728.3 501 685.7 501 642.8 501C600 501 557 501 514.2 501C471.3 501 428.7 501 385.8 501C343 501 300 501 257.2 501C214.3 501 171.7 501 128.8 501C86 501 43 501 21.5 501L0 501Z" fill="#02021e"></path></svg>