<svg id="visual" viewBox="0 0 900 300" width="900" height="300" xmlns="http://www.w3.org/2000/svg" xmlns:xlink="http://www.w3.org/1999/xlink" version="1.1"><path d="M0 43L13.7 44.5C27.3 46 54.7 49 82 53C109.3 57 136.7 62 163.8 59.5C191 57 218 47 245.2 46.5C272.3 46 299.7 55 327 62C354.3 69 381.7 74 409 69C436.3 64 463.7 49 491 48.5C518.3 48 545.7 62 573 68C600.3 74 627.7 72 654.8 68.5C682 65 709 60 736.2 61.5C763.3 63 790.7 71 818 68.5C845.3 66 872.7 53 886.3 46.5L900 40L900 0L886.3 0C872.7 0 845.3 0 818 0C790.7 0 763.3 0 736.2 0C709 0 682 0 654.8 0C627.7 0 600.3 0 573 0C545.7 0 518.3 0 491 0C463.7 0 436.3 0 409 0C381.7 0 354.3 0 327 0C299.7 0 272.3 0 245.2 0C218 0 191 0 163.8 0C136.7 0 109.3 0 82 0C54.7 0 27.3 0 13.7 0L0 0Z" fill="#020218"></path><path d="M0 145L13.7 137.5C27.3 130 54.7 115 82 119C109.3 123 136.7 146 163.8 151C191 156 218 143 245.2 142.5C272.3 142 299.7 154 327 159.5C354.3 165 381.7 164 409 155C436.3 146 463.7 129 491 127C518.3 125 545.7 138 573 149C600.3 160 627.7 169 654.8 166C682 163 709 148 736.2 142.5C763.3 137 790.7 141 818 136.5C845.3 132 872.7 119 886.3 112.5L900 106L900 38L886.3 44.5C872.7 51 845.3 64 818 66.5C790.7 69 763.3 61 736.2 59.5C709 58 682 63 654.8 66.5C627.7 70 600.3 72 573 66C545.7 60 518.3 46 491 46.5C463.7 47 436.3 62 409 67C381.7 72 354.3 67 327 60C299.7 53 272.3 44 245.2 44.5C218 45 191 55 163.8 57.5C136.7 60 109.3 55 82 51C54.7 47 27.3 44 13.7 42.5L0 41Z" fill="#050b2e"></path><path d="M0 187L13.7 179.5C27.3 172 54.7 157 82 162.5C109.3 168 136.7 194 163.8 196.5C191 199 218 178 245.2 174C272.3 170 299.7 183 327 187.5C354.3 192 381.7 188 409 180C436.3 172 463.7 160 491 162C518.3 164 545.7 180 573 188.5C600.3 197 627.7 198 654.8 191C682 184 709 169 736.2 165.5C763.3 162 790.7 170 818 166.5C845.3 163 872.7 148 886.3 140.5L900 133L900 104L886.3 110.5C872.7 117 845.3 130 818 134.5C790.7 139 763.3 135 736.2 140.5C709 146 682 161 654.8 164C627.7 167 600.3 158 573 147C545.7 136 518.3 123 491 125C463.7 127 436.3 144 409 153C381.7 162 354.3 163 327 157.5C299.7 152 272.3 140 245.2 140.5C218 141 191 154 163.8 149C136.7 144 109.3 121 82 117C54.7 113 27.3 128 13.7 135.5L0 143Z" fill="#001860"></path><path d="M0 214L13.7 208.5C27.3 203 54.7 192 82 197.5C109.3 203 136.7 225 163.8 231.5C191 238 218 229 245.2 228.5C272.3 228 299.7 236 327 238.5C354.3 241 381.7 238 409 232.5C436.3 227 463.7 219 491 218.5C518.3 218 545.7 225 573 233.5C600.3 242 627.7 252 654.8 242.5C682 233 709 204 736.2 193.5C763.3 183 790.7 191 818 194C845.3 197 872.7 195 886.3 194L900 193L900 131L886.3 138.5C872.7 146 845.3 161 818 164.5C790.7 168 763.3 160 736.2 163.5C709 167 682 182 654.8 189C627.7 196 600.3 195 573 186.5C545.7 178 518.3 162 491 160C463.7 158 436.3 170 409 178C381.7 186 354.3 190 327 185.5C299.7 181 272.3 168 245.2 172C218 176 191 197 163.8 194.5C136.7 192 109.3 166 82 160.5C54.7 155 27.3 170 13.7 177.5L0 185Z" fill="#050b2e"></path><path d="M0 301L13.7 301C27.3 301 54.7 301 82 301C109.3 301 136.7 301 163.8 301C191 301 218 301 245.2 301C272.3 301 299.7 301 327 301C354.3 301 381.7 301 409 301C436.3 301 463.7 301 491 301C518.3 301 545.7 301 573 301C600.3 301 627.7 301 654.8 301C682 301 709 301 736.2 301C763.3 301 790.7 301 818 301C845.3 301 872.7 301 886.3 301L900 301L900 191L886.3 192C872.7 193 845.3 195 818 192C790.7 189 763.3 181 736.2 191.5C709 202 682 231 654.8 240.5C627.7 250 600.3 240 573 231.5C545.7 223 518.3 216 491 216.5C463.7 217 436.3 225 409 230.5C381.7 236 354.3 239 327 236.5C299.7 234 272.3 226 245.2 226.5C218 227 191 236 163.8 229.5C136.7 223 109.3 201 82 195.5C54.7 190 27.3 201 13.7 206.5L0 212Z" fill="#020218"></path></svg>