<svg preserveAspectRatio="none" id="visual" viewBox="0 0 900 100" width="900" height="100" xmlns="http://www.w3.org/2000/svg" xmlns:xlink="http://www.w3.org/1999/xlink" version="1.1"><path d="M0 70L11.5 68.3C23 66.7 46 63.3 69 58.7C92 54 115 48 138.2 50.2C161.3 52.3 184.7 62.7 207.8 65.8C231 69 254 65 277 57.2C300 49.3 323 37.7 346 32.8C369 28 392 30 415.2 34.8C438.3 39.7 461.7 47.3 484.8 46.8C508 46.3 531 37.7 554 39.2C577 40.7 600 52.3 623 57.2C646 62 669 60 692.2 54.7C715.3 49.3 738.7 40.7 761.8 40.3C785 40 808 48 831 48.2C854 48.3 877 40.7 888.5 36.8L900 33L900 0L888.5 0C877 0 854 0 831 0C808 0 785 0 761.8 0C738.7 0 715.3 0 692.2 0C669 0 646 0 623 0C600 0 577 0 554 0C531 0 508 0 484.8 0C461.7 0 438.3 0 415.2 0C392 0 369 0 346 0C323 0 300 0 277 0C254 0 231 0 207.8 0C184.7 0 161.3 0 138.2 0C115 0 92 0 69 0C46 0 23 0 11.5 0L0 0Z" fill="#02021E" stroke-linecap="round" stroke-linejoin="miter"></path></svg>