<svg id="visual" viewBox="0 0 900 150" width="900" height="150" xmlns="http://www.w3.org/2000/svg" xmlns:xlink="http://www.w3.org/1999/xlink" version="1.1"><rect x="0" y="0" width="900" height="150" fill="#02021E"></rect><path d="M0 54L8.8 57.7C17.7 61.3 35.3 68.7 53 75C70.7 81.3 88.3 86.7 106 89.8C123.7 93 141.3 94 159 91.3C176.7 88.7 194.3 82.3 212 80.2C229.7 78 247.3 80 265 82.8C282.7 85.7 300.3 89.3 318 85.5C335.7 81.7 353.3 70.3 371 69.5C388.7 68.7 406.3 78.3 423.8 78C441.3 77.7 458.7 67.3 476.2 65C493.7 62.7 511.3 68.3 529 69.7C546.7 71 564.3 68 582 66.3C599.7 64.7 617.3 64.3 635 68.2C652.7 72 670.3 80 688 82.7C705.7 85.3 723.3 82.7 741 82.8C758.7 83 776.3 86 794 82.2C811.7 78.3 829.3 67.7 847 66.3C864.7 65 882.3 73 891.2 77L900 81L900 151L891.2 151C882.3 151 864.7 151 847 151C829.3 151 811.7 151 794 151C776.3 151 758.7 151 741 151C723.3 151 705.7 151 688 151C670.3 151 652.7 151 635 151C617.3 151 599.7 151 582 151C564.3 151 546.7 151 529 151C511.3 151 493.7 151 476.2 151C458.7 151 441.3 151 423.8 151C406.3 151 388.7 151 371 151C353.3 151 335.7 151 318 151C300.3 151 282.7 151 265 151C247.3 151 229.7 151 212 151C194.3 151 176.7 151 159 151C141.3 151 123.7 151 106 151C88.3 151 70.7 151 53 151C35.3 151 17.7 151 8.8 151L0 151Z" fill="#FFF" stroke-linecap="round" stroke-linejoin="miter"></path></svg>