<svg id="visual" viewBox="0 0 900 150" width="900" height="150" xmlns="http://www.w3.org/2000/svg" xmlns:xlink="http://www.w3.org/1999/xlink" version="1.1"><path d="M0 92L13.7 90.3C27.3 88.7 54.7 85.3 82 79.3C109.3 73.3 136.7 64.7 163.8 59.8C191 55 218 54 245.2 58.5C272.3 63 299.7 73 327 76.8C354.3 80.7 381.7 78.3 409 72C436.3 65.7 463.7 55.3 491 52.2C518.3 49 545.7 53 573 62.8C600.3 72.7 627.7 88.3 654.8 87.8C682 87.3 709 70.7 736.2 68C763.3 65.3 790.7 76.7 818 84.3C845.3 92 872.7 96 886.3 98L900 100L900 0L886.3 0C872.7 0 845.3 0 818 0C790.7 0 763.3 0 736.2 0C709 0 682 0 654.8 0C627.7 0 600.3 0 573 0C545.7 0 518.3 0 491 0C463.7 0 436.3 0 409 0C381.7 0 354.3 0 327 0C299.7 0 272.3 0 245.2 0C218 0 191 0 163.8 0C136.7 0 109.3 0 82 0C54.7 0 27.3 0 13.7 0L0 0Z" fill="#02021E" stroke-linecap="round" stroke-linejoin="miter"></path></svg>