<svg id="visual" viewBox="0 0 900 150" width="900" height="150" xmlns="http://www.w3.org/2000/svg" xmlns:xlink="http://www.w3.org/1999/xlink" version="1.1"><path d="M0 56L13.7 57.7C27.3 59.3 54.7 62.7 82 68.7C109.3 74.7 136.7 83.3 163.8 88.2C191 93 218 94 245.2 89.5C272.3 85 299.7 75 327 71.2C354.3 67.3 381.7 69.7 409 76C436.3 82.3 463.7 92.7 491 95.8C518.3 99 545.7 95 573 85.2C600.3 75.3 627.7 59.7 654.8 60.2C682 60.7 709 77.3 736.2 80C763.3 82.7 790.7 71.3 818 63.7C845.3 56 872.7 52 886.3 50L900 48L900 151L886.3 151C872.7 151 845.3 151 818 151C790.7 151 763.3 151 736.2 151C709 151 682 151 654.8 151C627.7 151 600.3 151 573 151C545.7 151 518.3 151 491 151C463.7 151 436.3 151 409 151C381.7 151 354.3 151 327 151C299.7 151 272.3 151 245.2 151C218 151 191 151 163.8 151C136.7 151 109.3 151 82 151C54.7 151 27.3 151 13.7 151L0 151Z" fill="#02021E" stroke-linecap="round" stroke-linejoin="miter"></path></svg>