<svg id="visual" viewBox="0 0 900 100" width="900" height="100" xmlns="http://www.w3.org/2000/svg" xmlns:xlink="http://www.w3.org/1999/xlink" version="1.1"><path d="M0 28L11.5 29.7C23 31.3 46 34.7 69 39.3C92 44 115 50 138.2 47.8C161.3 45.7 184.7 35.3 207.8 32.2C231 29 254 33 277 40.8C300 48.7 323 60.3 346 65.2C369 70 392 68 415.2 63.2C438.3 58.3 461.7 50.7 484.8 51.2C508 51.7 531 60.3 554 58.8C577 57.3 600 45.7 623 40.8C646 36 669 38 692.2 43.3C715.3 48.7 738.7 57.3 761.8 57.7C785 58 808 50 831 49.8C854 49.7 877 57.3 888.5 61.2L900 65L900 101L888.5 101C877 101 854 101 831 101C808 101 785 101 761.8 101C738.7 101 715.3 101 692.2 101C669 101 646 101 623 101C600 101 577 101 554 101C531 101 508 101 484.8 101C461.7 101 438.3 101 415.2 101C392 101 369 101 346 101C323 101 300 101 277 101C254 101 231 101 207.8 101C184.7 101 161.3 101 138.2 101C115 101 92 101 69 101C46 101 23 101 11.5 101L0 101Z" fill="#02021E" stroke-linecap="round" stroke-linejoin="miter"></path></svg>