<svg id="visual" viewBox="0 0 900 150" width="900" height="150" xmlns="http://www.w3.org/2000/svg" xmlns:xlink="http://www.w3.org/1999/xlink" version="1.1"><rect x="0" y="0" width="900" height="150" fill="#02021E"></rect><path d="M0 94L8.8 90.3C17.7 86.7 35.3 79.3 53 73C70.7 66.7 88.3 61.3 106 58.2C123.7 55 141.3 54 159 56.7C176.7 59.3 194.3 65.7 212 67.8C229.7 70 247.3 68 265 65.2C282.7 62.3 300.3 58.7 318 62.5C335.7 66.3 353.3 77.7 371 78.5C388.7 79.3 406.3 69.7 423.8 70C441.3 70.3 458.7 80.7 476.2 83C493.7 85.3 511.3 79.7 529 78.3C546.7 77 564.3 80 582 81.7C599.7 83.3 617.3 83.7 635 79.8C652.7 76 670.3 68 688 65.3C705.7 62.7 723.3 65.3 741 65.2C758.7 65 776.3 62 794 65.8C811.7 69.7 829.3 80.3 847 81.7C864.7 83 882.3 75 891.2 71L900 67L900 0L891.2 0C882.3 0 864.7 0 847 0C829.3 0 811.7 0 794 0C776.3 0 758.7 0 741 0C723.3 0 705.7 0 688 0C670.3 0 652.7 0 635 0C617.3 0 599.7 0 582 0C564.3 0 546.7 0 529 0C511.3 0 493.7 0 476.2 0C458.7 0 441.3 0 423.8 0C406.3 0 388.7 0 371 0C353.3 0 335.7 0 318 0C300.3 0 282.7 0 265 0C247.3 0 229.7 0 212 0C194.3 0 176.7 0 159 0C141.3 0 123.7 0 106 0C88.3 0 70.7 0 53 0C35.3 0 17.7 0 8.8 0L0 0Z" fill="#FFF" stroke-linecap="round" stroke-linejoin="miter"></path></svg>